<?xml version="1.0" encoding="UTF-8"?>
<svg width="30px" height="30px" version="1.1" viewBox="0 0 700 700" xmlns="http://www.w3.org/2000/svg">
 <path d="m179.3 351.47c-2.1172 1.7852-3.8164 4.0938-4.8984 6.7383l-50.941 125.2c-2.6406 6.5273-1.1367 14 3.832 18.969 4.9883 4.9883 12.461 6.4922 18.969 3.832l125.2-50.941c2.4141-0.98047 4.5312-2.4688 6.2461-4.3047 0.35156-0.31641 210.42-209.84 283.5-282.75 9.8516-9.8516 15.398-23.203 15.418-37.152 0-13.93-5.5312-27.301-15.383-37.152l-24.746-24.746c-20.492-20.477-53.691-20.512-74.199-0.035156-73.027 72.852-282.84 282.17-282.99 282.34zm-7.7695 106.68 25.359-62.316 36.961 36.961-62.316 25.359zm277.66-326.53-233.78 233.24 49.508 49.488 233.78-233.22-49.508-49.508zm74.289 24.781 13.004-12.969c3.2891-3.2891 5.1445-7.7344 5.1445-12.391 0-4.6367-1.8555-9.1016-5.1289-12.371l-24.746-24.762c-6.8438-6.8242-17.902-6.8242-24.746 0l-13.039 13.004 49.508 49.488z" fill-rule="evenodd"/>
</svg>
