<?xml version="1.0" encoding="UTF-8"?>
<svg width="30px" height="30px" version="1.1" viewBox="0 0 700 700" xmlns="http://www.w3.org/2000/svg">
 <g>
  <path fill = "#F97472" d="m303.33 210c12.887 0 23.336 10.445 23.336 23.332v140c0 12.887-10.449 23.336-23.336 23.336s-23.332-10.449-23.332-23.336v-140c0-12.887 10.445-23.332 23.332-23.332z"/>
  <path fill = "#F97472" d="m420 233.33c0-12.887-10.445-23.332-23.332-23.332s-23.336 10.445-23.336 23.332v140c0 12.887 10.449 23.336 23.336 23.336s23.332-10.449 23.332-23.336z"/>
  <path fill = "#F97472" d="m256.67 116.67h-93.336c-12.887 0-23.332 10.445-23.332 23.332s10.445 23.332 23.332 23.332h2.9062l38.566 289.25c4.6367 34.773 34.301 60.746 69.387 60.746h151.62c35.086 0 64.75-25.973 69.387-60.746l38.566-289.25h2.9062c12.887 0 23.332-10.445 23.332-23.332s-10.445-23.332-23.332-23.332h-93.336c0-38.66-31.336-70-70-70h-46.664c-38.66 0-70 31.34-70 70zm116.66-23.336c12.887 0 23.336 10.449 23.336 23.336h-93.336c0-12.887 10.449-23.336 23.336-23.336zm113.35 70h-273.37l37.746 283.09c1.5469 11.594 11.434 20.25 23.129 20.25h151.62c11.695 0 21.586-8.6562 23.129-20.25z" fill-rule="evenodd"/>
 </g>
</svg>
